<mxfile host="Electron" agent="Mozilla/5.0 (X11; Linux x86_64) AppleWebKit/537.36 (KHTML, like Gecko) draw.io/28.2.5 Chrome/138.0.7204.251 Electron/37.6.1 Safari/537.36" version="28.2.5">
  <diagram name="Page-1" id="Tvc2_rsvpPl-QbTTg1Bb">
    <mxGraphModel dx="872" dy="531" grid="1" gridSize="10" guides="1" tooltips="1" connect="1" arrows="1" fold="1" page="1" pageScale="1" pageWidth="827" pageHeight="1169" math="0" shadow="0">
      <root>
        <mxCell id="0" />
        <mxCell id="1" parent="0" />
        <mxCell id="5YSQwexlzO-r3IWacbDD-3" value="" style="edgeStyle=orthogonalEdgeStyle;rounded=0;orthogonalLoop=1;jettySize=auto;html=1;curved=1;" parent="1" source="5YSQwexlzO-r3IWacbDD-1" target="5YSQwexlzO-r3IWacbDD-2" edge="1">
          <mxGeometry relative="1" as="geometry" />
        </mxCell>
        <mxCell id="5YSQwexlzO-r3IWacbDD-5" value="" style="edgeStyle=orthogonalEdgeStyle;rounded=0;orthogonalLoop=1;jettySize=auto;html=1;curved=1;" parent="1" source="5YSQwexlzO-r3IWacbDD-1" target="5YSQwexlzO-r3IWacbDD-4" edge="1">
          <mxGeometry relative="1" as="geometry" />
        </mxCell>
        <mxCell id="5YSQwexlzO-r3IWacbDD-1" value="Prise en main du projet&amp;nbsp;" style="rounded=1;whiteSpace=wrap;html=1;fontSize=15;" parent="1" vertex="1">
          <mxGeometry x="270" y="50" width="190" height="60" as="geometry" />
        </mxCell>
        <mxCell id="5YSQwexlzO-r3IWacbDD-2" value="Cahier de charges" style="whiteSpace=wrap;html=1;rounded=1;fontSize=15;" parent="1" vertex="1">
          <mxGeometry x="150" y="170" width="170" height="60" as="geometry" />
        </mxCell>
        <mxCell id="5YSQwexlzO-r3IWacbDD-7" value="" style="rounded=0;orthogonalLoop=1;jettySize=auto;html=1;" parent="1" source="5YSQwexlzO-r3IWacbDD-4" target="5YSQwexlzO-r3IWacbDD-6" edge="1">
          <mxGeometry relative="1" as="geometry" />
        </mxCell>
        <mxCell id="5YSQwexlzO-r3IWacbDD-4" value="Diagramme de cas d&#39;utilisation" style="whiteSpace=wrap;html=1;rounded=1;fontSize=15;" parent="1" vertex="1">
          <mxGeometry x="370" y="170" width="230" height="60" as="geometry" />
        </mxCell>
        <mxCell id="5YSQwexlzO-r3IWacbDD-6" value="Diagramme de classe&amp;nbsp;" style="whiteSpace=wrap;html=1;rounded=1;fontSize=15;" parent="1" vertex="1">
          <mxGeometry x="392.5" y="270" width="185" height="60" as="geometry" />
        </mxCell>
      </root>
    </mxGraphModel>
  </diagram>
</mxfile>
